PathFileType	4	(X/Y/Z)	/Users/itak/Documents/Research/Walk-IL/dataset/trc/00001_00004.trc
DataRate	CameraRate	NumFrames	NumMarkers	Units	OrigDataRate	OrigDataStartFrame	OrigNumFrames
100.000000	100.000000	4	53	mm	100.000000	330	378
Frame#	Time	RPSI			LPSI			L3			STRN			T10			C7			CLAV			RBAK			LBAK			LSHO			LUPA			LAEL			LAOL			LWTS			LWPS			LFRA			LIFD			LHPS			LHTS			RSHO			RUPA			RAEL			RAOL			RWTS			RWPS			RFRA			RIFD			RHTS			RHPS			RBHD			LFHD			RFHD			LBHD			LHIP			RHIP			RASI			LASI			LKNE			LTHI			LANK			LTIP			LTOE			LMT1			LMT5			LHEE			RKNE			RTHI			RANK			RTIP			RTOE			RMT1			RMT5			RHEE			
		X1	Y1	Z1	X2	Y2	Z2	X3	Y3	Z3	X4	Y4	Z4	X5	Y5	Z5	X6	Y6	Z6	X7	Y7	Z7	X8	Y8	Z8	X9	Y9	Z9	X10	Y10	Z10	X11	Y11	Z11	X12	Y12	Z12	X13	Y13	Z13	X14	Y14	Z14	X15	Y15	Z15	X16	Y16	Z16	X17	Y17	Z17	X18	Y18	Z18	X19	Y19	Z19	X20	Y20	Z20	X21	Y21	Z21	X22	Y22	Z22	X23	Y23	Z23	X24	Y24	Z24	X25	Y25	Z25	X26	Y26	Z26	X27	Y27	Z27	X28	Y28	Z28	X29	Y29	Z29	X30	Y30	Z30	X31	Y31	Z31	X32	Y32	Z32	X33	Y33	Z33	X34	Y34	Z34	X35	Y35	Z35	X36	Y36	Z36	X37	Y37	Z37	X38	Y38	Z38	X39	Y39	Z39	X40	Y40	Z40	X41	Y41	Z41	X42	Y42	Z42	X43	Y43	Z43	X44	Y44	Z44	X45	Y45	Z45	X46	Y46	Z46	X47	Y47	Z47	X48	Y48	Z48	X49	Y49	Z49	X50	Y50	Z50	X51	Y51	Z51	X52	Y52	Z52	X53	Y53	Z53	

331	3.3	-224.9236602783203	1037.224487304688	-185.8614349365234	-258.1238403320312	1033.365356445312	-345.3245849609375	-247.8004913330078	1106.571655273438	-277.6236877441406	-19.25684356689453	1291.85693359375	-298.0994262695312	-273.2762145996094	1250.122924804688	-287.739501953125	-217.7465972900391	1515.316650390625	-309.2853698730469	-61.24862670898438	1417.750122070312	-303.2255859375	-272.6258239746094	1381.871337890625	-224.4645385742188	-236.7326354980469	1473.697631835938	-406.1406860351562	-133.3641357421875	1474.854858398438	-480.0943603515625	-169.4516143798828	1350.026489257812	-556.5906372070312	-181.2961578369141	1132.746826171875	-577.1716918945312	-239.6589813232422	1123.645263671875	-488.6114196777344	-89.90302276611328	884.036376953125	-514.3799438476562	-167.0952453613281	865.8541259765625	-554.453125	-168.6947021484375	1016.545532226562	-579.9155883789062	-58.5378303527832	703.431884765625	-485.8746643066406	-131.1853790283203	777.2813110351562	-549.6987915039062	-65.85787200927734	791.0007934570312	-524.8106689453125	-137.9015960693359	1500.236206054688	-134.962890625	-155.4598846435547	1430.872192382812	-61.54607391357422	-214.2604370117188	1169.551635742188	-28.45783042907715	-216.6013488769531	1137.191772460938	-123.529899597168	-100.3808898925781	902.9116821289062	-46.21363830566406	-165.77294921875	894.2010498046875	18.58114433288574	-206.0679779052734	1094.531982421875	-8.691925048828125	-106.6584167480469	719.609130859375	-68.58652496337891	-74.05799102783203	791.757568359375	-28.41250610351562	-130.5393829345703	791.3861694335938	21.07586479187012	-136.5242004394531	1699.598999023438	-371.25	40.93671417236328	1681.575073242188	-245.2681274414062	43.3002815246582	1682.188232421875	-343.8738708496094	-132.3067626953125	1693.636962890625	-226.8588562011719	-189.0113372802734	935.7097778320312	-466.6919860839844	-82.04563140869141	942.3722534179688	-107.4838409423828	-4.736108303070068	973.716552734375	-200.8453369140625	-58.03488540649414	978.086181640625	-430.7874145507812	-186.5758819580078	485.3638305664062	-445.8366394042969	-193.7528381347656	631.5341796875	-467.5876770019531	-560.80078125	130.7655639648438	-414.3203430175781	-391.0542907714844	320.9615478515625	-447.379638671875	-393.7228088378906	33.9755744934082	-314.2060241699219	-439.1929931640625	65.88367462158203	-308.9675903320312	-465.0470275878906	47.80714797973633	-411.5813598632812	-610.2249755859375	191.1561737060547	-373.7245178222656	57.20101165771484	534.4010009765625	-177.1756286621094	-17.31714630126953	789.1513671875	-118.0409164428711	1.010108113288879	38.63803863525391	-191.4461517333984	58.2518310546875	403.7812194824219	-177.2886962890625	226.6407928466797	39.63034820556641	-260.8861999511719	160.3653869628906	44.58685684204102	-283.240478515625	151.5132751464844	39.35680770874023	-186.5612945556641	-59.38912963867188	38.42087554931641	-229.2218780517578	
332	3.31	-214.9792633056641	1038.772827148438	-184.9334869384766	-248.2004547119141	1034.412963867188	-344.3927307128906	-237.8284301757812	1107.896606445312	-276.5219421386719	-9.368684768676758	1293.328247070312	-296.9859619140625	-263.4577941894531	1251.3701171875	-286.4745483398438	-208.1658172607422	1516.587036132812	-308.0241088867188	-51.51304626464844	1419.171508789062	-302.063720703125	-262.7818603515625	1383.078125	-223.1537017822266	-227.1501007080078	1475.040893554688	-404.8662109375	-123.8250961303711	1476.298095703125	-478.8437194824219	-160.0455169677734	1351.569580078125	-555.3303833007812	-172.4066162109375	1134.371459960938	-575.9557495117188	-230.6620330810547	1125.413330078125	-487.3715209960938	-81.65825653076172	885.3692626953125	-513.260498046875	-158.8459167480469	867.4209594726562	-553.411376953125	-160.0770874023438	1018.147705078125	-578.770751953125	-50.89087677001953	704.6614379882812	-484.6755065917969	-123.2313537597656	778.7366943359375	-548.61767578125	-57.90578842163086	792.2388305664062	-523.647216796875	-128.2029876708984	1501.654174804688	-133.8061828613281	-145.7021331787109	1432.364135742188	-60.32823944091797	-204.3212280273438	1171.033203125	-27.02821731567383	-206.7351989746094	1138.624633789062	-122.085807800293	-90.31102752685547	904.4244384765625	-44.78344345092773	-155.6202392578125	895.7162475585938	20.07106971740723	-196.0915374755859	1096.00048828125	-7.286221504211426	-98.26572418212891	720.8703002929688	-67.85881042480469	-63.94602966308594	793.271728515625	-26.98343276977539	-120.3283004760742	792.9097290039062	22.54269599914551	-126.6324768066406	1701.059204101562	-369.8881530761719	50.89973068237305	1682.513305664062	-244.0623321533203	53.17863082885742	1683.160278320312	-342.6699523925781	-122.2946090698242	1695.0283203125	-225.5029754638672	-178.6962585449219	936.4047241210938	-465.6416625976562	-72.38169860839844	943.5755004882812	-106.3882904052734	5.143270015716553	974.9154663085938	-199.5734100341797	-48.11529159545898	979.3759765625	-429.482177734375	-168.1747436523438	484.6843872070312	-447.0409545898438	-178.3049011230469	631.4283447265625	-467.9545288085938	-552.2244262695312	140.1019592285156	-415.1257934570312	-376.3097839355469	324.3125305175781	-448.4194946289062	-391.1283264160156	33.59720230102539	-314.9437255859375	-434.3260803222656	68.71247100830078	-309.5911254882812	-461.0577697753906	52.06673812866211	-412.1173706054688	-598.8165283203125	202.6171722412109	-374.7580261230469	63.05704498291016	533.9198608398438	-176.5317840576172	-8.964085578918457	789.6043090820312	-117.0104751586914	1.073913931846619	38.62008285522461	-191.3377532958984	62.61810302734375	403.2783508300781	-176.7105865478516	226.6931762695312	39.47271728515625	-261.0271911621094	160.4191589355469	44.57966613769531	-283.1951599121094	151.5839996337891	39.33552169799805	-186.5348968505859	-59.31830596923828	38.52482223510742	-229.0186920166016	
333	3.32	-205.2489624023438	1040.260986328125	-184.0785369873047	-238.454345703125	1035.398559570312	-343.5478820800781	-228.0297546386719	1109.189086914062	-275.48974609375	0.3609148859977722	1294.726440429688	-295.9539184570312	-253.7721405029297	1252.605346679688	-285.2500915527344	-198.6656646728516	1517.8388671875	-306.80126953125	-41.88728713989258	1420.536376953125	-300.9811706542969	-253.032958984375	1384.276489257812	-221.8659057617188	-217.688232421875	1476.358642578125	-403.6231384277344	-114.4373092651367	1477.6884765625	-477.6609497070312	-150.8336334228516	1353.0595703125	-554.12060546875	-163.7054901123047	1135.94091796875	-574.7919311523438	-221.8240509033203	1127.112426757812	-486.1685180664062	-73.38721466064453	886.7523193359375	-512.1822509765625	-150.5570526123047	868.9536743164062	-552.3832397460938	-151.5664978027344	1019.708618164062	-577.665771484375	-43.01320648193359	705.9869995117188	-483.5187377929688	-115.1409378051758	780.2037353515625	-547.5592041015625	-49.82218170166016	793.5650634765625	-522.5224609375	-118.5380401611328	1503.035766601562	-132.7091369628906	-135.9788360595703	1433.83251953125	-59.15536117553711	-194.4365844726562	1172.504150390625	-25.55063819885254	-196.9584350585938	1140.027709960938	-120.5709686279297	-80.15069580078125	905.9935302734375	-43.33919906616211	-145.3391265869141	897.2401733398438	21.6062183380127	-186.1343078613281	1097.439697265625	-5.851299285888672	-89.44629669189453	722.2003173828125	-67.01097106933594	-53.62904739379883	794.876220703125	-25.52827072143555	-109.9011383056641	794.4752197265625	24.05477142333984	-116.8366241455078	1702.476684570312	-368.5965576171875	60.75618743896484	1683.427978515625	-242.9027862548828	62.9597053527832	1684.103149414062	-341.5048828125	-112.39990234375	1696.374267578125	-224.2227020263672	-168.4722595214844	937.0643920898438	-464.6908264160156	-62.97540283203125	944.7000122070312	-105.319694519043	14.81023597717285	976.0262451171875	-198.2996368408203	-38.32845306396484	980.6510009765625	-428.1929016113281	-149.2642517089844	484.1082458496094	-448.0841369628906	-162.6052551269531	631.3515014648438	-468.2991027832031	-542.6928100585938	149.7572174072266	-415.7923583984375	-360.8297729492188	327.7698669433594	-449.30712890625	-387.5496520996094	33.48394775390625	-316.166748046875	-428.333251953125	71.87212371826172	-310.5441284179688	-456.1609802246094	57.06008911132812	-412.93310546875	-586.4177856445312	214.0952606201172	-375.4415588378906	68.53923034667969	533.3668823242188	-175.8165130615234	-0.9231168031692505	789.9732666015625	-115.995964050293	1.121115803718567	38.58710861206055	-191.2264556884766	66.6510009765625	402.7360229492188	-176.0643615722656	226.7009887695312	39.41632080078125	-261.1553649902344	160.4323425292969	44.60100173950195	-283.1546936035156	151.6274261474609	39.31192398071289	-186.4905853271484	-59.24877166748047	38.61003112792969	-228.8331146240234	
334	3.33	-195.7489166259766	1041.672119140625	-183.3052215576172	-228.8889770507812	1036.307006835938	-342.8023376464844	-218.425537109375	1110.43701171875	-274.5424499511719	9.917667388916016	1296.033325195312	-295.0113830566406	-244.2341613769531	1253.822021484375	-284.0781860351562	-189.2502746582031	1519.064208984375	-305.6226806640625	-32.38180160522461	1421.827758789062	-299.9849243164062	-243.3933563232422	1385.459106445312	-220.6096038818359	-208.3524475097656	1477.642211914062	-402.4171752929688	-105.2033081054688	1479.01171875	-476.552490234375	-141.8228607177734	1354.4765625	-552.964599609375	-155.1925048828125	1137.436767578125	-573.6742553710938	-213.1412048339844	1128.722534179688	-484.9915161132812	-65.09236145019531	888.161376953125	-511.1539916992188	-142.2415466308594	870.43212890625	-551.3628540039062	-143.168701171875	1021.207702636719	-576.5960083007812	-34.90380096435547	707.3802490234375	-482.4275817871094	-106.9284210205078	781.6600341796875	-546.5286865234375	-41.61421203613281	794.9522094726562	-521.4524536132812	-108.9074859619141	1504.362670898438	-131.6752624511719	-126.2847213745117	1435.25537109375	-58.03127670288086	-184.5983734130859	1173.94287109375	-24.02814483642578	-187.2727355957031	1141.3798828125	-118.9911575317383	-69.90658569335938	907.5933227539062	-41.88832855224609	-134.9328460693359	898.75244140625	23.18239974975586	-176.1841430664062	1098.82861328125	-4.393916606903076	-80.05144500732422	723.6007690429688	-65.97509765625	-43.11881637573242	796.544921875	-24.05679893493652	-99.26770782470703	796.059814453125	25.6055908203125	-107.142463684082	1703.83056640625	-367.3808898925781	70.50016784667969	1684.316528320312	-241.7940063476562	72.63941192626953	1685.014526367188	-340.3845825195312	-102.6317596435547	1697.653442382812	-223.0230560302734	-158.3395233154297	937.6814575195312	-463.849853515625	-53.82851791381836	945.7484130859375	-104.287109375	24.26037979125977	977.05078125	-197.0322570800781	-28.67177581787109	981.8989868164062	-426.9316711425781	-129.963134765625	483.6880187988281	-448.9360046386719	-146.7086029052734	631.3283081054688	-468.5945434570312	-532.177001953125	159.5480804443359	-416.301025390625	-344.7000427246094	331.3138732910156	-450.018310546875	-382.7192687988281	33.73782348632812	-317.9888916015625	-421.041015625	75.31024169921875	-311.9028930664062	-450.1527404785156	62.72283172607422	-414.0834655761719	-573.075439453125	225.3470764160156	-375.7063598632812	73.6881103515625	532.7584228515625	-175.0338745117188	6.844066619873047	790.2726440429688	-115.006965637207	1.155051946640015	38.54297256469727	-191.1144714355469	70.38946533203125	402.1614074707031	-175.3551635742188	226.6829376220703	39.41424560546875	-261.2601318359375	160.4208221435547	44.63415908813477	-283.1124572753906	151.6557312011719	39.27202987670898	-186.4241485595703	-59.18497085571289	38.67679977416992	-228.6689910888672	
